# xmcd
#
# Track frame offsets: 
#        150
#        24252
#        45247
#        70317
#        93682
#        115077
#        136500
#        155275
#        172020
#        197252
#        220217
#        249380
#        270427
#        290952
#        311712
#
# Disc length: 4431 seconds
#
# Revision: 0
# Processed by: cddbd v1.5.1PL2 Copyright (c) Steve Scherf et al.
# Submitted via: ExactAudioCopy v0.95a5
#
DISCID=cc114d0f
DTITLE=Tony Joe White - Star Profile
DYEAR=2000
DGENRE=Blues
TTITLE0=Lake Placid Blues
TTITLE1=Bayou Woman
TTITLE2=Yo Yo Man - Garter Belt
TTITLE3=The Beach Life
TTITLE4=Let the Healing Begin
TTITLE5=Lousianna Rain
TTITLE6=These Arms of Mine
TTITLE7=Paris Mood Tonight
TTITLE8=Conjure Woman
TTITLE9=I Want My Fleetwood Black
TTITLE10=Down Again
TTITLE11=Across From Midnight
TTITLE12=Cold Figners
TTITLE13=The Delta Singer
TTITLE14=Selena
EXTD=
EXTT0=
EXTT1=
EXTT2=
EXTT3=
EXTT4=
EXTT5=
EXTT6=
EXTT7=
EXTT8=
EXTT9=
EXTT10=
EXTT11=
EXTT12=
EXTT13=
EXTT14=
PLAYORDER=
